HIERARCHY
ROOT Hips
{
	OFFSET -278.121490 93.318451 465.951996
	CHANNELS 6 Xposition Yposition Zposition Zrotation Yrotation Xrotation 
	JOINT LeftUpLeg
	{
		OFFSET 0.103457 1.857822 10.548516
		CHANNELS 3 Zrotation Yrotation Xrotation
		JOINT LeftLeg
		{
			OFFSET 43.500008 -0.000031 0.000015
			CHANNELS 3 Zrotation Yrotation Xrotation
			JOINT LeftFoot
			{
				OFFSET 42.372192 0.000027 -0.000009
				CHANNELS 3 Zrotation Yrotation Xrotation
				JOINT LeftToe
				{
					OFFSET 17.299999 0.000000 -0.000004
					CHANNELS 3 Zrotation Yrotation Xrotation
					End Site
					{
						OFFSET 0.000000 0.000000 0.000000
					}
				}
			}
		}
	}
	JOINT RightUpLeg
	{
		OFFSET 0.103460 1.857822 -10.548513
		CHANNELS 3 Zrotation Yrotation Xrotation
		JOINT RightLeg
		{
			OFFSET 43.500038 -0.000015 -0.000002
			CHANNELS 3 Zrotation Yrotation Xrotation
			JOINT RightFoot
			{
				OFFSET 42.372269 -0.000019 0.000014
				CHANNELS 3 Zrotation Yrotation Xrotation
				JOINT RightToe
				{
					OFFSET 17.300005 -0.000001 0.000011
					CHANNELS 3 Zrotation Yrotation Xrotation
					End Site
					{
						OFFSET 0.000000 0.000000 0.000000
					}
				}
			}
		}
	}
	JOINT Spine
	{
		OFFSET 6.901966 -2.603743 -0.000003
		CHANNELS 3 Zrotation Yrotation Xrotation
		JOINT Spine1
		{
			OFFSET 12.588103 0.000012 0.000008
			CHANNELS 3 Zrotation Yrotation Xrotation
			JOINT Spine2
			{
				OFFSET 12.343199 0.000004 0.000007
				CHANNELS 3 Zrotation Yrotation Xrotation
				JOINT Neck
				{
					OFFSET 25.832901 -0.000008 -0.000001
					CHANNELS 3 Zrotation Yrotation Xrotation
					JOINT Head
					{
						OFFSET 11.766611 0.000029 -0.000004
						CHANNELS 3 Zrotation Yrotation Xrotation
						End Site
						{
							OFFSET 0.000000 0.000000 0.000000
						}
					}
				}
				JOINT LeftShoulder
				{
					OFFSET 19.745907 -1.480370 6.000077
					CHANNELS 3 Zrotation Yrotation Xrotation
					JOINT LeftArm
					{
						OFFSET 11.284128 -0.000004 -0.000015
						CHANNELS 3 Zrotation Yrotation Xrotation
						JOINT LeftForeArm
						{
							OFFSET 33.000065 0.000010 0.000016
							CHANNELS 3 Zrotation Yrotation Xrotation
							JOINT LeftHand
							{
								OFFSET 25.200001 0.000010 0.000006
								CHANNELS 3 Zrotation Yrotation Xrotation
								End Site
								{
									OFFSET 0.000000 0.000000 0.000000
								}
							}
						}
					}
				}
				JOINT RightShoulder
				{
					OFFSET 19.746094 -1.480385 -6.000086
					CHANNELS 3 Zrotation Yrotation Xrotation
					JOINT RightArm
					{
						OFFSET 11.284142 -0.000011 -0.000013
						CHANNELS 3 Zrotation Yrotation Xrotation
						JOINT RightForeArm
						{
							OFFSET 33.000092 0.000004 0.000015
							CHANNELS 3 Zrotation Yrotation Xrotation
							JOINT RightHand
							{
								OFFSET 25.199759 0.000141 0.000412
								CHANNELS 3 Zrotation Yrotation Xrotation
								End Site
								{
									OFFSET 0.000000 0.000000 0.000000
								}
							}
						}
					}
				}
			}
		}
	}
}
MOTION
Frames: 10
Frame Time: 0.033333
-19.092899 94.094856 -593.164429 91.429445 1.034034 -0.566040 -178.316022 -5.855300 169.588707 -48.790985 -0.849863 2.891771 69.932599 -3.885721 -5.342296 21.454555 0.003092 0.000001 175.596978 -3.352004 -174.692989 -19.008147 1.943325 -0.346122 79.834543 -0.678545 -3.326753 21.454557 -0.003108 -0.000017 7.132384 0.980229 -1.100675 4.233670 1.999597 -2.165438 3.915604 1.986622 -2.177469 2.743816 15.307829 2.742137 -18.857326 -7.969871 8.032787 -159.440712 -83.055674 -22.374310 4.236090 61.805938 52.692160 -56.197359 -16.071731 2.032523 1.566196 -28.404983 -1.988914 -167.546630 73.181352 14.171190 2.279400 -56.708779 -19.076163 -70.531778 17.678577 -2.736978 3.395686 7.387337 -23.502940 
-22.554090 93.739372 -593.335815 91.713178 0.984077 -2.130005 177.689065 -5.634094 170.957463 -50.447098 -2.115164 0.509566 75.075097 -1.283543 -3.342674 21.454545 0.003093 0.000000 177.336409 -3.360505 -175.006303 -19.425557 2.022142 -1.106355 81.217165 -0.193992 -3.680809 21.454558 -0.003108 -0.000017 7.323342 0.935503 -0.881939 4.620105 1.905106 -1.726377 4.301989 1.894784 -1.737846 2.530413 16.415571 3.035351 -21.324073 -8.788448 9.082649 -156.610487 -82.832921 -25.239883 12.761823 57.553660 62.195341 -61.399630 -14.886530 2.143264 -1.851516 -30.668082 4.018126 -167.062083 73.732732 14.667316 -2.639738 -54.386556 -14.337359 -79.887791 13.145000 -2.820264 -0.459057 4.382804 -36.647691 
-26.008129 93.332848 -593.507324 92.002197 0.807960 -3.586059 173.147577 -4.958694 172.450146 -51.298761 -1.910341 -0.907047 79.754008 0.548076 -0.550238 21.454551 0.003092 -0.000000 179.422635 -3.316894 -175.619559 -19.185742 2.312358 -1.749145 82.356994 0.287467 -3.647779 21.454558 -0.003108 -0.000017 7.543579 0.920530 -0.564947 5.066114 1.864672 -1.089474 4.747886 1.858195 -1.100713 2.071164 16.172358 3.101733 -23.376785 -8.616533 9.318036 -146.185077 -82.778273 -35.781015 18.429247 53.828451 67.794962 -67.196248 -12.717002 2.220062 -4.298702 -31.338646 6.055066 -168.993374 74.752596 12.685922 -6.059178 -52.757337 -8.120364 -88.275428 8.190365 -2.843084 -4.620310 1.820869 -48.247278 
-29.567080 92.922592 -593.673279 92.307944 0.498539 -4.670045 168.407658 -4.041107 174.541987 -51.008997 -1.213722 -1.162489 82.665465 1.022036 0.803563 21.454551 0.003091 -0.000000 -178.281215 -3.267504 -175.950741 -18.637501 2.632104 -2.402136 82.925805 0.824235 -3.299039 21.454562 -0.003108 -0.000018 7.771406 0.964595 -0.062802 5.530069 1.931010 -0.079708 5.211806 1.930629 -0.091369 1.387574 14.852509 2.601792 -25.139478 -7.958003 8.576375 -135.276623 -83.412210 -46.768429 22.224613 51.676395 71.107979 -71.627907 -10.653592 2.257376 -5.736726 -29.289569 6.955614 -170.701317 76.141439 10.940601 -7.548184 -52.497237 -1.352025 -94.308643 3.640031 -2.794073 -7.213877 0.583660 -50.988766 
-33.252609 92.578941 -593.803284 92.751975 0.249307 -5.613038 163.815626 -2.647095 176.852312 -49.155038 -0.527521 -1.348168 84.344579 1.318086 1.738349 21.454555 0.003092 -0.000000 -176.331114 -3.034806 -176.387299 -18.506744 3.014613 -2.902963 82.759544 1.297883 -2.653907 21.454557 -0.003108 -0.000018 7.994716 1.000662 0.630090 5.988731 1.967467 1.311072 5.670520 1.975484 1.299170 0.262828 13.394071 1.646958 -26.630906 -7.396529 7.371271 -120.377699 -84.402553 -61.717671 23.210170 51.427418 73.120829 -73.832699 -10.090638 2.309786 -8.320354 -25.316619 10.188279 -175.994823 77.726118 5.548782 -6.553909 -53.065054 1.996678 -97.831620 2.319176 -2.859568 -9.346112 2.267433 -44.066328 
-37.178001 92.292587 -593.988525 93.197036 -0.074225 -6.416016 159.786306 -1.319900 179.466048 -45.785060 -0.505578 -1.362883 85.233849 1.556703 2.936196 21.454551 0.003091 0.000001 -174.477046 -2.693405 -176.447788 -18.668860 3.443038 -3.663627 81.718391 2.016978 -1.681394 21.454560 -0.003108 -0.000018 8.256836 1.064008 1.367344 6.526913 2.049413 2.792750 6.208976 2.066371 2.780337 -1.641830 11.767969 0.637479 -27.711689 -6.736946 6.034173 -106.726227 -84.476285 -75.432152 21.450368 52.158579 72.636419 -74.946751 -9.950205 2.346725 -10.393941 -20.758500 14.307130 172.318405 79.299186 -6.313507 -3.073609 -54.609763 4.201085 -99.636149 1.597273 -2.889891 -9.238732 4.206418 -32.924182 
-41.347469 92.055443 -594.269470 93.593461 -0.143952 -7.166992 156.458529 0.086807 -179.097751 -40.896478 -0.310447 -0.440006 84.578028 0.965402 3.026001 21.454551 0.003093 -0.000000 -172.860982 -2.087492 -176.025395 -19.469010 3.377235 -4.928724 80.391286 3.344153 0.201622 21.454558 -0.003108 -0.000017 8.508916 1.010656 2.060267 7.040557 1.894365 4.178597 6.723196 1.919678 4.167112 -3.652020 11.566780 -0.166202 -28.680586 -6.857346 5.513185 -102.042876 -83.949193 -80.178389 17.633494 53.273590 69.895887 -74.964270 -10.153340 2.361566 -11.170435 -18.154972 16.358218 158.741301 79.929360 -20.066993 0.726083 -56.644309 4.985711 -98.189864 1.620079 -2.826788 -10.234000 7.330453 -21.392204 
-45.780560 91.869148 -594.653992 93.785730 0.401546 -7.644044 154.220330 1.662292 -176.970816 -34.286897 -1.692477 -0.175707 81.431325 0.877614 2.906249 21.454551 0.003092 -0.000000 -171.314982 -0.842896 -174.973245 -20.711306 3.015365 -6.509388 78.437838 4.985544 2.098420 21.454557 -0.003108 -0.000017 8.699346 0.759205 2.494115 7.416277 1.357278 5.031971 7.099430 1.387738 5.023719 -4.735560 12.344308 -0.405196 -29.503726 -6.865655 5.620855 -107.591694 -83.006893 -74.680981 13.271245 54.067125 66.118178 -73.606900 -10.895272 2.356134 -10.579615 -17.724489 15.820407 149.010002 79.569983 -29.944031 2.976135 -58.486227 5.027672 -93.563299 2.467873 -2.678768 -9.828123 9.427910 -11.184518 
-50.437248 91.272797 -595.189514 94.048911 0.997834 -7.660035 152.771879 3.144807 -175.613043 -27.095191 -3.154221 -0.810825 77.823886 0.507488 -0.686325 21.454553 0.003091 0.000000 -170.160790 0.331497 -173.366430 -22.967174 2.309382 -8.381230 76.944991 6.959004 4.178922 21.454558 -0.003108 -0.000014 8.780806 0.457577 2.690235 7.566426 0.738540 5.404635 7.249842 0.771254 5.400102 -5.245034 13.639999 -0.406212 -30.350840 -6.749951 5.976573 -115.611306 -81.813597 -66.700813 8.676937 55.016778 61.315407 -70.888471 -11.957126 2.317103 -9.928827 -16.814812 15.603106 149.476095 79.017960 -29.506223 1.753982 -59.175878 1.597157 -87.027907 7.220748 -2.719452 -5.830018 11.209421 -4.151560 
-55.313450 90.251907 -595.739685 93.789658 2.138034 -7.636964 152.305132 5.104293 -177.748501 -22.234398 -3.521165 -1.575090 74.558338 0.531397 -2.437294 21.454551 0.003092 0.000000 -169.099433 2.042802 -171.882885 -26.568898 1.154867 -10.151889 75.958226 9.288549 7.481145 21.454563 -0.003107 -0.000017 8.859430 0.016186 2.752198 7.702452 -0.150595 5.499301 7.385978 -0.117297 5.500111 -4.562564 14.712803 -0.074131 -30.649203 -6.282510 6.252729 -127.667765 -80.922360 -54.591411 4.658591 55.662794 56.435650 -67.199704 -13.519697 2.275466 -8.606287 -14.343737 14.856659 151.696712 78.334278 -27.296535 0.088465 -59.425596 -3.474872 -79.410634 12.794411 -2.774620 -1.438972 12.997470 -2.416898 
